<?xml version="1.0" encoding="UTF-8"?>
<svg width="700pt" height="700pt" version="1.1" viewBox="0 0 700 700" xmlns="http://www.w3.org/2000/svg" xmlns:xlink="http://www.w3.org/1999/xlink">
 <defs>
 </defs>
 <g>
  <path d="m482.87 127.4c-13.816 0-25.387-4.8555-34.727-14.57-9.8906-9.6992-14.84-21.461-14.84-35.273 0-13.629 4.957-25.301 14.84-35 9.3359-9.7109 20.91-14.555 34.727-14.555 13.621 0 25.289 4.8438 35 14.559 9.6992 9.6992 14.559 21.371 14.559 35 0 13.816-4.8555 25.57-14.559 35.273-9.7188 9.7109-21.387 14.566-35 14.566zm-100.53 174.71-0.27344-0.28516c-20.172-19.969-44.238-29.961-72.238-29.961-22.77 0-42.84 6.3438-60.199 19.039-4.4844 3.3594-8.8711 7.0898-13.16 11.199-4.1094 4.0977-7.8398 8.5859-11.199 13.441-12.699 17.359-19.039 37.328-19.039 59.914 0 28.184 10.074 52.359 30.238 72.527 20.344 20.344 44.801 30.516 73.359 30.516 22.215 0 42-6.3438 59.359-19.039 4.6719-3.543 9.0547-7.3711 13.16-11.473 4.1094-4.1094 7.9414-8.3984 11.484-12.887 12.691-17.359 19.039-37.238 19.039-59.641 0-28.551-10.188-53.004-30.531-73.352zm131.33-54.883c8.7695 0 16.145 2.9844 22.113 8.9727 6.1602 6.3438 9.2383 13.715 9.2383 22.113v158.76c0 8.9609-3.0859 16.43-9.2383 22.398-5.9688 5.9688-13.344 8.9609-22.113 8.9609-8.5859 0-15.871-2.9844-21.84-8.9609-5.9688-6.3438-8.9609-13.816-8.9609-22.398v-127.4h-34.727c10.086 20.727 15.125 43.398 15.125 68.039 0 42.746-15.125 79.055-45.371 108.91-30.227 30.242-66.543 45.367-108.91 45.367-42.559 0-78.871-15.125-108.91-45.371-30.055-29.859-45.086-66.168-45.086-108.91 0-42.371 15.031-78.688 45.086-108.91 20.16-20.172 43.215-33.512 69.16-40.039l85.676-85.688-38.074-21.84-44.801 44.801-0.83984 0.28516c-5.7852 5.7852-12.969 8.6875-21.559 8.6875s-15.871-2.9961-21.84-8.9727c-5.9688-6.3438-8.9609-13.816-8.9609-22.398 0-8.0312 2.8008-15.113 8.3984-21.273l63.559-63.559c5.7852-5.2305 12.699-7.8398 20.715-7.8398 4.4844 0 8.7812 0.92969 12.887 2.8008v-0.29297l139.71 80.359c9.7109 6.1719 14.57 15.125 14.57 26.887 0 6.8984-1.9727 13.07-5.8867 18.484v0.27344l-67.762 67.762h108.64z" fill-rule="evenodd"/>
  <use x="70" y="644" xlink:href="#w"/>
  <use x="90.550781" y="644" xlink:href="#c"/>
  <use x="104.359375" y="644" xlink:href="#a"/>
  <use x="123.347656" y="644" xlink:href="#f"/>
  <use x="142.242188" y="644" xlink:href="#b"/>
  <use x="155.628906" y="644" xlink:href="#a"/>
  <use x="174.617188" y="644" xlink:href="#m"/>
  <use x="204.410156" y="644" xlink:href="#l"/>
  <use x="224.453125" y="644" xlink:href="#k"/>
  <use x="252.453125" y="644" xlink:href="#j"/>
  <use x="272.617188" y="644" xlink:href="#f"/>
  <use x="291.511719" y="644" xlink:href="#a"/>
  <use x="310.5" y="644" xlink:href="#i"/>
  <use x="322.683594" y="644" xlink:href="#e"/>
  <use x="342.617188" y="644" xlink:href="#h"/>
  <use x="361.960938" y="644" xlink:href="#v"/>
  <use x="389.828125" y="644" xlink:href="#e"/>
  <use x="409.757812" y="644" xlink:href="#u"/>
  <use x="426.425781" y="644" xlink:href="#h"/>
  <use x="436.023438" y="644" xlink:href="#t"/>
  <use x="445.621094" y="644" xlink:href="#g"/>
  <use x="70" y="672" xlink:href="#i"/>
  <use x="82.183594" y="672" xlink:href="#c"/>
  <use x="95.992188" y="672" xlink:href="#d"/>
  <use x="115.226562" y="672" xlink:href="#g"/>
  <use x="154.152344" y="672" xlink:href="#b"/>
  <use x="167.535156" y="672" xlink:href="#s"/>
  <use x="187.46875" y="672" xlink:href="#a"/>
  <use x="216.207031" y="672" xlink:href="#r"/>
  <use x="239.640625" y="672" xlink:href="#d"/>
  <use x="258.878906" y="672" xlink:href="#e"/>
  <use x="278.8125" y="672" xlink:href="#q"/>
  <use x="308.492188" y="672" xlink:href="#p"/>
  <use x="329.015625" y="672" xlink:href="#c"/>
  <use x="342.820312" y="672" xlink:href="#d"/>
  <use x="362.058594" y="672" xlink:href="#o"/>
  <use x="371.65625" y="672" xlink:href="#a"/>
  <use x="390.648438" y="672" xlink:href="#n"/>
  <use x="407.242188" y="672" xlink:href="#b"/>
 </g>
</svg>
