<?xml version="1.0" encoding="UTF-8"?>
<svg width="700pt" height="700pt" version="1.1" viewBox="0 0 700 700" xmlns="http://www.w3.org/2000/svg" xmlns:xlink="http://www.w3.org/1999/xlink">
 <defs>
  
 </defs>
 <g>
  <path d="m540.23 11.203c43.305 0 78.574 33.078 78.574 78.398 0 10.414-2.9102 27.242-6.3008 36.398l-72.102 154-72.098-154c-3.3672-9.1523-6.3008-25.992-6.3008-36.398 0-45.32 34.922-78.398 78.227-78.398zm0.17188 44.801c-18.559 0-33.602 15.043-33.602 33.602 0 18.555 15.043 33.602 33.602 33.602 18.555 0 33.602-15.043 33.602-33.602 0-18.559-15.043-33.602-33.602-33.602zm-369.43 190.39c49.488 0 89.426 38.613 89.426 89.602 0 11.711-3.3242 29.254-7.1758 39.551l-82.422 173.25-82.426-173.25c-3.8711-10.301-7.1758-27.836-7.1758-39.551 0-50.984 40.285-89.602 89.773-89.602zm348.25 14.875 9.9766 21c-83.348 14.926-120.14 34.75-134.23 53.199-7.3945 9.6914-9.582 19.285-9.625 30.449-0.054687 11.168 2.5703 23.73 4.8984 37.102 2.3281 13.367 4.4688 27.648 2.1016 42.523-2.3672 14.875-9.6758 29.988-24.324 43.051-28.238 25.172-81.594 44.402-184.1 58.625l11.727-24.5c90.867-13.875 136.73-32.395 157.32-50.75 11.246-10.027 15.656-19.438 17.324-29.926 1.668-10.484 0.13281-22.336-2.1016-35.176-2.2383-12.84-5.3047-26.668-5.25-41.125 0.054688-14.457 3.7266-29.828 14.352-43.75 19.73-25.859 60.391-45.621 141.93-60.727zm-348.42 35.527c-21.648 0-39.199 17.551-39.199 39.199s17.551 39.199 39.199 39.199c21.648 0 39.199-17.551 39.199-39.199s-17.551-39.199-39.199-39.199z"/>
  <use x="70" y="644" xlink:href="#s"/>
  <use x="90.550781" y="644" xlink:href="#c"/>
  <use x="104.359375" y="644" xlink:href="#a"/>
  <use x="123.347656" y="644" xlink:href="#l"/>
  <use x="142.242188" y="644" xlink:href="#d"/>
  <use x="155.628906" y="644" xlink:href="#a"/>
  <use x="174.617188" y="644" xlink:href="#k"/>
  <use x="204.410156" y="644" xlink:href="#j"/>
  <use x="224.453125" y="644" xlink:href="#i"/>
  <use x="252.453125" y="644" xlink:href="#e"/>
  <use x="275.882812" y="644" xlink:href="#h"/>
  <use x="295.820312" y="644" xlink:href="#g"/>
  <use x="324.992188" y="644" xlink:href="#a"/>
  <use x="343.984375" y="644" xlink:href="#c"/>
  <use x="357.792969" y="644" xlink:href="#b"/>
  <use x="386.777344" y="644" xlink:href="#r"/>
  <use x="409.515625" y="644" xlink:href="#f"/>
  <use x="429.445312" y="644" xlink:href="#b"/>
  <use x="70" y="672" xlink:href="#q"/>
  <use x="82.183594" y="672" xlink:href="#c"/>
  <use x="95.992188" y="672" xlink:href="#b"/>
  <use x="115.226562" y="672" xlink:href="#g"/>
  <use x="154.152344" y="672" xlink:href="#d"/>
  <use x="167.535156" y="672" xlink:href="#p"/>
  <use x="187.46875" y="672" xlink:href="#a"/>
  <use x="216.207031" y="672" xlink:href="#e"/>
  <use x="239.640625" y="672" xlink:href="#b"/>
  <use x="258.878906" y="672" xlink:href="#h"/>
  <use x="278.8125" y="672" xlink:href="#f"/>
  <use x="308.492188" y="672" xlink:href="#o"/>
  <use x="329.015625" y="672" xlink:href="#c"/>
  <use x="342.820312" y="672" xlink:href="#b"/>
  <use x="362.058594" y="672" xlink:href="#n"/>
  <use x="371.65625" y="672" xlink:href="#a"/>
  <use x="390.648438" y="672" xlink:href="#m"/>
  <use x="407.242188" y="672" xlink:href="#d"/>
 </g>
</svg>
