<?xml version="1.0" encoding="UTF-8"?>
<svg width="700pt" height="700pt" version="1.1" viewBox="0 0 700 700" xmlns="http://www.w3.org/2000/svg" xmlns:xlink="http://www.w3.org/1999/xlink">
 <defs>
 </defs>
 <g>
  <path d="m616 279.99c0-9.8555-5.6484-18.855-14.531-23.145l-72.422-35.07 72.438-35.133c8.8828-4.3086 14.516-13.309 14.516-23.164 0-9.8555-5.6328-18.855-14.512-23.16l-240.25-116.52c-7.1055-3.4531-15.367-3.4531-22.473 0l-240.26 116.52c-8.875 4.3086-14.504 13.309-14.504 23.16 0 9.8555 5.6328 18.855 14.504 23.16l72.441 35.133-72.422 35.074c-8.875 4.2891-14.512 13.289-14.523 23.145-0.007812 9.8711 5.6211 18.855 14.496 23.18l72.395 35.105-72.379 35.094c-8.875 4.3086-14.512 13.289-14.512 23.16 0 9.8555 5.6328 18.855 14.504 23.16l240.26 116.53c3.5547 1.7227 7.3906 2.5781 11.238 2.5781s7.6836-0.85547 11.238-2.582l240.25-116.53c8.8789-4.3047 14.512-13.305 14.512-23.156 0-9.8711-5.6328-18.855-14.512-23.16l-72.379-35.098 72.395-35.105c8.8633-4.3281 14.496-13.309 14.496-23.18zm-266-204.43 181.27 87.918-181.27 87.918-181.27-87.918zm181.27 320.97-181.27 87.918-181.27-87.918 61.152-29.648 108.89 52.809c3.543 1.7266 7.3828 2.582 11.219 2.582s7.6758-0.85547 11.219-2.582l108.9-52.809zm-181.27-28.609-181.27-87.883 61.215-29.648 108.81 52.773c3.5547 1.7266 7.3906 2.582 11.238 2.582s7.6836-0.85547 11.238-2.582l108.82-52.777 61.215 29.648z"/>
  <use x="70" y="644" xlink:href="#t"/>
  <use x="90.550781" y="644" xlink:href="#c"/>
  <use x="104.359375" y="644" xlink:href="#a"/>
  <use x="123.347656" y="644" xlink:href="#f"/>
  <use x="142.242188" y="644" xlink:href="#b"/>
  <use x="155.628906" y="644" xlink:href="#a"/>
  <use x="174.617188" y="644" xlink:href="#i"/>
  <use x="204.410156" y="644" xlink:href="#h"/>
  <use x="224.453125" y="644" xlink:href="#e"/>
  <use x="252.453125" y="644" xlink:href="#g"/>
  <use x="270.292969" y="644" xlink:href="#e"/>
  <use x="288.546875" y="644" xlink:href="#s"/>
  <use x="298.140625" y="644" xlink:href="#f"/>
  <use x="70" y="672" xlink:href="#r"/>
  <use x="82.183594" y="672" xlink:href="#c"/>
  <use x="95.992188" y="672" xlink:href="#d"/>
  <use x="115.226562" y="672" xlink:href="#q"/>
  <use x="154.152344" y="672" xlink:href="#b"/>
  <use x="167.535156" y="672" xlink:href="#p"/>
  <use x="187.46875" y="672" xlink:href="#a"/>
  <use x="216.207031" y="672" xlink:href="#o"/>
  <use x="239.640625" y="672" xlink:href="#d"/>
  <use x="258.878906" y="672" xlink:href="#n"/>
  <use x="278.8125" y="672" xlink:href="#m"/>
  <use x="308.492188" y="672" xlink:href="#l"/>
  <use x="329.015625" y="672" xlink:href="#c"/>
  <use x="342.820312" y="672" xlink:href="#d"/>
  <use x="362.058594" y="672" xlink:href="#k"/>
  <use x="371.65625" y="672" xlink:href="#a"/>
  <use x="390.648438" y="672" xlink:href="#j"/>
  <use x="407.242188" y="672" xlink:href="#b"/>
 </g>
</svg>
