<?xml version="1.0" encoding="UTF-8"?>
<svg width="700pt" height="700pt" version="1.1" viewBox="0 0 700 700" xmlns="http://www.w3.org/2000/svg" xmlns:xlink="http://www.w3.org/1999/xlink">
 <defs>
 </defs>
 <g>
  <path d="m385 122.5c24.305 0 43.746-19.441 43.746-43.75s-19.441-43.75-43.746-43.75-43.754 19.441-43.754 43.75 19.449 43.75 43.754 43.75z"/>
  <path d="m385 253.75h113.75v-43.75h-78.75l-49.004-75.832c-8.418-12.762-19.836-19.836-33.832-19.836-3.4961 0-9.6562 0.58203-14 1.9102l-121.91 41.258v122.5h43.75v-87.5l44.332-17.5-88.082 350h43.75l62.012-179.67 55.02 74.672v105h41.562v-140l-62.379-105 21.598-67.664z"/>
  <use x="70" y="576.40625" xlink:href="#y"/>
  <use x="74.011719" y="576.40625" xlink:href="#c"/>
  <use x="76.710938" y="576.40625" xlink:href="#a"/>
  <use x="80.417969" y="576.40625" xlink:href="#l"/>
  <use x="84.109375" y="576.40625" xlink:href="#b"/>
  <use x="86.722656" y="576.40625" xlink:href="#a"/>
  <use x="90.433594" y="576.40625" xlink:href="#k"/>
  <use x="96.25" y="576.40625" xlink:href="#j"/>
  <use x="100.167969" y="576.40625" xlink:href="#i"/>
  <use x="105.636719" y="576.40625" xlink:href="#h"/>
  <use x="109.804688" y="576.40625" xlink:href="#x"/>
  <use x="111.679687" y="576.40625" xlink:href="#g"/>
  <use x="115.570312" y="576.40625" xlink:href="#a"/>
  <use x="119.28125" y="576.40625" xlink:href="#b"/>
  <use x="121.894531" y="576.40625" xlink:href="#f"/>
  <use x="123.769531" y="576.40625" xlink:href="#w"/>
  <use x="129.585938" y="576.40625" xlink:href="#v"/>
  <use x="134.128906" y="576.40625" xlink:href="#a"/>
  <use x="137.835938" y="576.40625" xlink:href="#u"/>
  <use x="141.089844" y="576.40625" xlink:href="#f"/>
  <use x="142.964844" y="576.40625" xlink:href="#t"/>
  <use x="146.878906" y="576.40625" xlink:href="#e"/>
  <use x="70" y="581.875" xlink:href="#s"/>
  <use x="72.378906" y="581.875" xlink:href="#c"/>
  <use x="75.078125" y="581.875" xlink:href="#d"/>
  <use x="78.832031" y="581.875" xlink:href="#r"/>
  <use x="86.4375" y="581.875" xlink:href="#b"/>
  <use x="89.050781" y="581.875" xlink:href="#q"/>
  <use x="92.941406" y="581.875" xlink:href="#a"/>
  <use x="98.554688" y="581.875" xlink:href="#p"/>
  <use x="103.132812" y="581.875" xlink:href="#d"/>
  <use x="106.890625" y="581.875" xlink:href="#g"/>
  <use x="110.785156" y="581.875" xlink:href="#e"/>
  <use x="116.582031" y="581.875" xlink:href="#o"/>
  <use x="120.589844" y="581.875" xlink:href="#c"/>
  <use x="123.285156" y="581.875" xlink:href="#d"/>
  <use x="127.042969" y="581.875" xlink:href="#n"/>
  <use x="128.917969" y="581.875" xlink:href="#a"/>
  <use x="132.625" y="581.875" xlink:href="#m"/>
  <use x="135.867188" y="581.875" xlink:href="#b"/>
 </g>
</svg>
