<?xml version="1.0" encoding="UTF-8"?>
<svg width="700pt" height="700pt" version="1.1" viewBox="0 0 700 700" xmlns="http://www.w3.org/2000/svg" xmlns:xlink="http://www.w3.org/1999/xlink">
 <defs>
 </defs>
 <g>
  <path d="m630 274.79c-0.015625-5.2031-0.33594-10.402-0.95312-15.57-0.51172-3.8242-1.4492-7.582-2.8008-11.199-1.1094-11.258-6.3672-21.699-14.754-29.297-8.3828-7.5977-19.289-11.805-30.605-11.805h-0.83984c-1.0195-1.0781-1.8008-2.3555-2.293-3.7539-14.676-38.379-29.477-76.684-44.41-114.91-11.199-28-30.633-42.055-60.48-42.113-81.91-0.26172-163.84-0.28125-245.79-0.054687-11.758-0.22266-23.359 2.7188-33.598 8.5117-12.977 8.0781-22.691 20.469-27.441 35-13.887 36.008-28 71.961-41.609 108.08h0.003906c-0.97266 3.2344-2.5508 6.2578-4.6484 8.9062h-0.61719c-11.395-0.003907-22.375 4.2578-30.781 11.949s-13.625 18.254-14.633 29.602c-2.3828 7.2266-3.5898 14.789-3.5859 22.398-0.16797 48.664-0.16797 97.105-0.16797 145.66 0 1.3438 0 2.7422 0.33594 4.5352h44.801v6.0469c0 16.801-0.28125 33.602 0.55859 50.734v0.003907c0.12891 7.0977 2.3555 13.996 6.4023 19.828 4.0469 5.832 9.7305 10.332 16.336 12.934 6.3984 3.0312 13.5 4.2734 20.551 3.5938 7.0508-0.67969 13.785-3.2578 19.488-7.4609 10.949-7.6094 17.281-20.27 16.801-33.598v-52.023h309.57v10.246c0 15.961-0.33594 31.977 0.95312 47.824 1.9141 12.891 10.066 24.008 21.789 29.707 11.719 5.6992 25.496 5.2461 36.82-1.2109 11.32-6.4531 18.727-18.082 19.789-31.07 0.61719-16.801 0.33594-33.207 0.44922-49.785v-6.1602h45.359v-5.9375-139.61zm-455.56-97.945c9.1836-24.473 18.199-49.055 27.609-73.473h-0.003906c1.7773-5.7383 5.4609-10.695 10.441-14.059 4.9805-3.3594 10.957-4.918 16.945-4.4219h241.41c5.9844-0.51953 11.965 1.0391 16.934 4.418 4.9688 3.375 8.6211 8.3633 10.34 14.121 12.711 33.602 25.09 67.199 37.633 100.46v-0.003907c0.24609 0.86328 0.43359 1.7461 0.55859 2.6328h-372.91c3.8086-10.246 7.3945-19.934 11.035-29.68zm-17.977 156.8c-11.316-0.082032-22.141-4.6562-30.086-12.715-7.9414-8.0625-12.359-18.949-12.277-30.266 0.082032-11.316 4.6523-22.137 12.715-30.082 8.0586-7.9453 18.945-12.363 30.262-12.281 14.473 1.1602 27.359 9.5938 34.211 22.391 6.8555 12.793 6.7305 28.195-0.32031 40.883-7.0547 12.684-20.074 20.914-34.562 21.848zm387.35 0c-11.379 0.35547-22.426-3.8398-30.699-11.66-8.2695-7.8203-13.078-18.617-13.359-29.996-0.27734-11.379 3.9922-22.398 11.871-30.617 7.875-8.2188 18.703-12.953 30.086-13.156 11.379-0.20312 22.371 4.1445 30.535 12.078s12.824 18.793 12.949 30.176c0.31641 11.219-3.8906 22.094-11.672 30.184-7.7812 8.0859-18.488 12.707-29.711 12.824z"/>
  <use x="70" y="644" xlink:href="#t"/>
  <use x="90.550781" y="644" xlink:href="#d"/>
  <use x="104.359375" y="644" xlink:href="#a"/>
  <use x="123.347656" y="644" xlink:href="#k"/>
  <use x="142.242188" y="644" xlink:href="#c"/>
  <use x="155.628906" y="644" xlink:href="#a"/>
  <use x="174.617188" y="644" xlink:href="#j"/>
  <use x="204.410156" y="644" xlink:href="#i"/>
  <use x="224.453125" y="644" xlink:href="#h"/>
  <use x="252.453125" y="644" xlink:href="#g"/>
  <use x="271.796875" y="644" xlink:href="#f"/>
  <use x="288.394531" y="644" xlink:href="#b"/>
  <use x="307.632812" y="644" xlink:href="#e"/>
  <use x="327.5625" y="644" xlink:href="#s"/>
  <use x="70" y="672" xlink:href="#r"/>
  <use x="82.183594" y="672" xlink:href="#d"/>
  <use x="95.992188" y="672" xlink:href="#b"/>
  <use x="115.226562" y="672" xlink:href="#q"/>
  <use x="154.152344" y="672" xlink:href="#c"/>
  <use x="167.535156" y="672" xlink:href="#p"/>
  <use x="187.46875" y="672" xlink:href="#a"/>
  <use x="216.207031" y="672" xlink:href="#o"/>
  <use x="239.640625" y="672" xlink:href="#b"/>
  <use x="258.878906" y="672" xlink:href="#n"/>
  <use x="278.8125" y="672" xlink:href="#e"/>
  <use x="308.492188" y="672" xlink:href="#m"/>
  <use x="329.015625" y="672" xlink:href="#d"/>
  <use x="342.820312" y="672" xlink:href="#b"/>
  <use x="362.058594" y="672" xlink:href="#l"/>
  <use x="371.65625" y="672" xlink:href="#a"/>
  <use x="390.648438" y="672" xlink:href="#f"/>
  <use x="407.242188" y="672" xlink:href="#c"/>
 </g>
</svg>
