<?xml version="1.0" encoding="UTF-8"?>
<svg width="700pt" height="700pt" version="1.1" viewBox="0 0 700 700" xmlns="http://www.w3.org/2000/svg" xmlns:xlink="http://www.w3.org/1999/xlink">
 <defs>
 </defs>
 <g>
  <path d="m501.2 229.6c-8.9023 0-17.641 1.1758-25.871 3.3594l-13.832-30.352c-0.054688-0.11328-0.054688-0.28125-0.11719-0.38672l-1.1758-2.5195-27.434-60.262c-0.33984-0.78906-0.83984-1.4609-1.2891-2.1914-0.55859-0.95312-1.0078-1.9609-1.6797-2.7422-0.16797-0.16406-0.39062-0.38672-0.55859-0.55859-0.11719-0.11328-0.22266-0.28125-0.39063-0.39062-0.16797-0.16406-0.39062-0.38672-0.55859-0.55859l-0.33984-0.33594c-0.50391-0.33984-1.1758-0.83984-1.8477-1.1758-0.33594-0.22266-0.72656-0.33984-1.1211-0.50781-0.72656-0.38672-1.3984-0.78125-2.1836-1.0586-1.793-0.67188-3.6953-1.1211-5.6016-1.1211h-33.602c-9.2969 0-16.801 7.5039-16.801 16.801 0 9.2969 7.5039 16.801 16.801 16.801h22.848l19.824 43.68c-25.703 33.43-53.758 56.445-81.309 72.574h-0.054688l-22.012-65.855h10.305c9.2969 0 16.801-7.5039 16.801-16.801s-7.5039-16.801-16.801-16.801h-67.199c-9.2969 0-16.801 7.5039-16.801 16.801s7.5039 16.801 16.801 16.801h21.504l27.105 81.145h-0.054687c-6.5508 2.8555-12.938 5.207-19.32 7.2227-12.434-41.328-50.906-71.566-96.434-71.566-55.609 0-100.8 45.191-100.8 100.8s45.191 100.8 100.8 100.8c53.93 0 98.113-42.504 100.63-95.93 44.191-13.609 96.266-40.992 142.46-94.922l2.8555 6.5508c-26.715 17.977-44.355 48.723-44.355 83.496 0 55.609 45.191 100.8 100.8 100.8s100.8-45.191 100.8-100.8c0-55.605-45.191-100.8-100.8-100.8zm-304.02 167.77c-37.129 0-67.199-30.07-67.199-67.199 0-37.129 30.07-67.199 67.199-67.199 37.07 0 67.199 30.07 67.199 67.199 0 37.129-30.129 67.199-67.199 67.199zm303.58 0c-37.129 0-67.258-30.07-67.258-67.199 0-37.129 30.129-67.199 67.258-67.199 37.07 0 67.199 30.07 67.199 67.199 0 37.129-30.129 67.199-67.199 67.199z"/>
  <use x="70" y="644" xlink:href="#v"/>
  <use x="90.550781" y="644" xlink:href="#d"/>
  <use x="104.359375" y="644" xlink:href="#c"/>
  <use x="123.347656" y="644" xlink:href="#g"/>
  <use x="142.242188" y="644" xlink:href="#b"/>
  <use x="155.628906" y="644" xlink:href="#c"/>
  <use x="174.617188" y="644" xlink:href="#f"/>
  <use x="204.410156" y="644" xlink:href="#k"/>
  <use x="224.453125" y="644" xlink:href="#j"/>
  <use x="252.453125" y="644" xlink:href="#i"/>
  <use x="270.292969" y="644" xlink:href="#g"/>
  <use x="289.1875" y="644" xlink:href="#u"/>
  <use x="307.25" y="644" xlink:href="#a"/>
  <use x="326.484375" y="644" xlink:href="#e"/>
  <use x="346.417969" y="644" xlink:href="#d"/>
  <use x="360.226562" y="644" xlink:href="#h"/>
  <use x="379.570312" y="644" xlink:href="#t"/>
  <use x="399.738281" y="644" xlink:href="#b"/>
  <use x="413.125" y="644" xlink:href="#e"/>
  <use x="433.054687" y="644" xlink:href="#f"/>
  <use x="453.101562" y="644" xlink:href="#h"/>
  <use x="462.695312" y="644" xlink:href="#a"/>
  <use x="70" y="672" xlink:href="#s"/>
  <use x="82.183594" y="672" xlink:href="#d"/>
  <use x="95.992188" y="672" xlink:href="#a"/>
  <use x="115.226562" y="672" xlink:href="#r"/>
  <use x="154.152344" y="672" xlink:href="#b"/>
  <use x="167.535156" y="672" xlink:href="#q"/>
  <use x="187.46875" y="672" xlink:href="#c"/>
  <use x="216.207031" y="672" xlink:href="#p"/>
  <use x="239.640625" y="672" xlink:href="#a"/>
  <use x="258.878906" y="672" xlink:href="#e"/>
  <use x="278.8125" y="672" xlink:href="#o"/>
  <use x="308.492188" y="672" xlink:href="#n"/>
  <use x="329.015625" y="672" xlink:href="#d"/>
  <use x="342.820312" y="672" xlink:href="#a"/>
  <use x="362.058594" y="672" xlink:href="#m"/>
  <use x="371.65625" y="672" xlink:href="#c"/>
  <use x="390.648438" y="672" xlink:href="#l"/>
  <use x="407.242188" y="672" xlink:href="#b"/>
 </g>
</svg>
