<?xml version="1.0" encoding="UTF-8"?>
<svg width="700pt" height="700pt" version="1.1" viewBox="0 0 700 700" xmlns="http://www.w3.org/2000/svg">
 <path d="m581.62 231.46-63.312-11.668c-2.0234-5.4453-4.3555-11.043-6.8438-16.332l36.711-52.891 0.003907 0.003906c2.0977-2.9922 3.0742-6.625 2.7617-10.266s-1.8984-7.0547-4.4766-9.6445l-47.133-47.133c-2.5898-2.582-6.0039-4.1641-9.6445-4.4766s-7.2734 0.66406-10.266 2.7617l-52.891 36.711c-5.2891-2.4883-10.891-4.8203-16.332-6.8438l-11.668-63.312 0.003906 0.003906c-0.64844-3.5742-2.5273-6.8086-5.3125-9.1406-2.7852-2.3281-6.3008-3.6094-9.9336-3.6172h-66.578c-3.6328 0.007812-7.1484 1.2891-9.9336 3.6172-2.7852 2.332-4.6641 5.5664-5.3125 9.1406l-11.668 63.312c-5.4453 2.0234-11.043 4.3555-16.332 6.8438l-52.887-36.715c-2.9922-2.0977-6.625-3.0742-10.266-2.7617s-7.0547 1.8945-9.6445 4.4766l-47.133 47.133c-2.5781 2.5898-4.1641 6.0039-4.4766 9.6445s0.66406 7.2734 2.7617 10.266l36.711 52.891c-2.4883 5.2891-4.8203 10.891-6.8438 16.332l-63.312 11.668 0.003906-0.003906c-3.5742 0.64844-6.8086 2.5273-9.1406 5.3125s-3.6094 6.3008-3.6172 9.9336v66.578c0.007812 3.6328 1.2891 7.1484 3.6172 9.9336 2.332 2.7852 5.5664 4.6641 9.1406 5.3125l63.312 11.668c2.0234 5.4453 4.3555 11.043 6.8438 16.332l-36.711 52.891-0.003907-0.003906c-2.0977 2.9922-3.0742 6.625-2.7617 10.266s1.8945 7.0547 4.4766 9.6445l47.133 47.133c2.5898 2.5781 6.0039 4.1641 9.6445 4.4766s7.2734-0.66406 10.266-2.7617l52.891-36.711c5.2891 2.4883 10.891 4.8203 16.332 6.8438l11.668 63.312-0.003906-0.003906c0.64844 3.5742 2.5273 6.8086 5.3125 9.1406 2.7852 2.3281 6.3008 3.6094 9.9336 3.6133h66.578c3.6328-0.003906 7.1484-1.2852 9.9336-3.6133 2.7852-2.332 4.6641-5.5664 5.3125-9.1406l11.668-63.312c5.4453-2.0234 11.043-4.3555 16.332-6.8438l52.891 36.711-0.003906 0.003907c2.9922 2.0977 6.625 3.0742 10.266 2.7617s7.0547-1.8984 9.6445-4.4766l47.133-47.133c2.582-2.5898 4.1641-6.0039 4.4766-9.6445s-0.66406-7.2734-2.7617-10.266l-36.711-52.891c2.4883-5.2891 4.8203-10.891 6.8438-16.332l63.312-11.668-0.003906 0.003906c3.5742-0.64844 6.8086-2.5273 9.1406-5.3125 2.3281-2.7852 3.6094-6.3008 3.6172-9.9336v-66.578c-0.007812-3.6328-1.2852-7.1484-3.6172-9.9336s-5.5664-4.6641-9.1406-5.3125zm-231.62 110.76c-16.504 0-32.328-6.5547-43.996-18.227-11.672-11.668-18.227-27.492-18.227-43.996s6.5547-32.328 18.227-43.996c11.668-11.672 27.492-18.227 43.996-18.227s32.328 6.5547 43.996 18.227c11.672 11.668 18.227 27.492 18.227 43.996 0.003906 16.504-6.5508 32.332-18.219 44.004-11.672 11.668-27.5 18.223-44.004 18.219z"/>
</svg>
